<svg width="32" height="32" viewBox="0 0 32 32" fill="none" xmlns="http://www.w3.org/2000/svg">
<g opacity="0.5">
<path d="M20.0672 6.66732C21.3695 6.9214 22.5664 7.55833 23.5046 8.49657C24.4429 9.4348 25.0798 10.6317 25.3339 11.934M20.0672 1.33398C22.7729 1.63457 25.296 2.84622 27.2222 4.76999C29.1484 6.69377 30.3632 9.21533 30.6672 11.9207M29.3339 22.5607V26.5607C29.3354 26.932 29.2593 27.2995 29.1106 27.6398C28.9618 27.98 28.7436 28.2854 28.47 28.5365C28.1964 28.7875 27.8733 28.9786 27.5216 29.0976C27.1698 29.2166 26.7971 29.2607 26.4272 29.2273C22.3243 28.7815 18.3832 27.3795 14.9206 25.134C11.699 23.0869 8.96768 20.3555 6.92056 17.134C4.6672 13.6556 3.26489 9.69531 2.82723 5.57398C2.79391 5.20527 2.83773 4.83366 2.9559 4.48282C3.07406 4.13197 3.26399 3.80957 3.51358 3.53615C3.76318 3.26272 4.06697 3.04426 4.40562 2.89468C4.74426 2.7451 5.11035 2.66767 5.48056 2.66732H9.48056C10.1276 2.66095 10.755 2.89009 11.2456 3.31203C11.7362 3.73397 12.0567 4.31991 12.1472 4.96065C12.3161 6.24074 12.6292 7.49762 13.0806 8.70732C13.26 9.18455 13.2988 9.7032 13.1924 10.2018C13.0861 10.7004 12.839 11.1581 12.4806 11.5207L10.7872 13.214C12.6853 16.552 15.4492 19.3159 18.7872 21.214L20.4806 19.5207C20.8431 19.1622 21.3008 18.9151 21.7994 18.8088C22.298 18.7024 22.8167 18.7413 23.2939 18.9207C24.5036 19.3721 25.7605 19.6852 27.0406 19.854C27.6883 19.9454 28.2798 20.2716 28.7026 20.7706C29.1254 21.2697 29.3501 21.9068 29.3339 22.5607Z" stroke="white" stroke-width="2" stroke-linecap="round" stroke-linejoin="round"/>
</g>
</svg>
