<svg width="599" height="765" viewBox="0 0 599 765" fill="none" xmlns="http://www.w3.org/2000/svg">
<path d="M12.2033 765C5.14784 703.79 37.6903 639.844 91.2844 609.515C144.901 579.185 216.421 584.267 265.212 621.862C286.31 638.119 305.224 660.653 331.63 664.217C356.956 667.643 381.938 651.157 394.899 629.128C407.861 607.1 410.849 580.588 410.642 554.996C409.884 453.063 364.035 351.246 386.718 251.866C408.551 156.211 499.169 80.7444 597.141 76.6055C607.115 39.7921 575.446 10.7047 538.192 2.58777C500.938 -5.52912 462.627 6.93363 426.638 19.4424C364.264 41.1257 301.845 63.6139 243.816 95.1156C185.786 126.617 131.917 167.708 93.0999 221.169C46.8602 284.862 24.2689 362.697 10.5486 440.187C-7.92891 544.51 1.30985 659.573 12.1803 764.977L12.2033 765Z" fill="url(#paint0_linear_946_434)"/>
<defs>
<linearGradient id="paint0_linear_946_434" x1="412.734" y1="101.759" x2="104.5" y2="793" gradientUnits="userSpaceOnUse">
<stop stop-color="#135F69"/>
<stop offset="1" stop-color="#135F69" stop-opacity="0"/>
</linearGradient>
</defs>
</svg>
