<svg width="887" height="1009" viewBox="0 0 887 1009" fill="none" xmlns="http://www.w3.org/2000/svg">
<path d="M648.738 141.286C680.445 153.06 713.132 165.851 747.299 167.573C776.612 169.075 796.32 160.385 822.904 176.22C873.886 206.58 894.61 272.3 884.197 328.919C872.086 394.77 828.581 449.833 786.507 501.926C733.149 567.98 679.79 634.035 626.415 700.077C550.313 794.281 471.472 890.827 365.547 949.465C281.132 996.193 182.152 1016.08 86.2875 1005.56C-44.0218 991.227 -162.839 922.985 -264.307 840.068C-299.516 811.285 -334.491 778.63 -349.123 735.57C-375.745 657.22 -302.874 620.919 -279.548 555.448C-253.511 482.378 -258.084 402.568 -259.857 325.031C-261.629 247.494 -259.348 166.249 -221.886 98.3149C-184.424 30.381 -100.971 -18.3487 -28.2124 8.38874C23.0517 27.2402 56.1525 77.2268 77.1983 127.62C98.244 178.013 111.171 232.299 140.112 278.624C169.052 324.95 220.243 363.273 274.364 355.855C331.467 348.029 369.751 294.641 398.995 244.946C428.24 195.251 460.834 140.044 516.048 123.544C559.611 110.533 606.12 125.467 648.722 141.273L648.738 141.286Z" fill="url(#paint0_linear_946_421)"/>
<defs>
<linearGradient id="paint0_linear_946_421" x1="-454.389" y1="318.296" x2="920.34" y2="493.963" gradientUnits="userSpaceOnUse">
<stop stop-color="#E3E3C4"/>
<stop offset="1" stop-color="#E3E3C4" stop-opacity="0"/>
</linearGradient>
</defs>
</svg>
