<svg width="1668" height="1572" viewBox="0 0 1668 1572" fill="none" xmlns="http://www.w3.org/2000/svg">
<path d="M958.705 1565.74C995.338 1553.29 1023.84 1521.04 1033.71 1483.85C1039.13 1463.42 1037.87 1441.43 1039.78 1420.49C1041.86 1397.99 1045.35 1375.49 1052.38 1353.98C1066.99 1309.34 1096.29 1276.72 1140.44 1260.65C1190.2 1242.54 1244.39 1241.05 1297.46 1240.87C1350.52 1240.68 1404.41 1241.43 1455.51 1227.34C1547.95 1201.86 1623.76 1126.2 1652.98 1034.86C1682.21 943.527 1665.32 839.181 1611.74 759.105C1558.16 679.029 1469.76 623.998 1375.03 607.64C1336.59 600.995 1296.94 600.338 1259.8 588.281C1210.37 572.272 1176.48 534.79 1175.31 482.066C1174.71 454.98 1186.11 429.284 1197.26 404.683C1229.41 333.784 1261.56 262.885 1293.69 192.006C1304.48 168.241 1315.38 143.95 1318.04 117.95C1324.36 56.1681 1272.69 6.16297 1213.17 0.808433C1156.4 -4.26699 1105.68 40.8121 1082.82 92.8823C1059.95 144.953 1057.84 203.393 1050.74 259.893C1043.64 316.394 1029.42 375.566 988.998 415.441C945.5 458.339 878.486 470.439 818.02 460.285C757.553 450.131 702.114 420.576 649.242 389.252C596.371 357.928 544.306 324.085 486.343 303.912C400.207 273.928 303.355 276.449 219.27 310.874C135.186 345.299 64.6655 411.341 24.7385 492.965C4.29442 534.8 -8.23804 584.091 7.73859 628.069C23.6947 672.026 76.7706 704.229 118.88 684.383C174.269 658.282 232.657 628.983 293.521 621.529C354.386 614.075 419.18 623.869 469.915 658.701C520.65 693.533 554.438 755.883 545.667 816.611C537.971 870.005 500.894 913.477 466.832 955.134C432.771 996.79 398.69 1044.1 399.029 1098.09C399.333 1151.82 435 1200.62 479.575 1230.89C576.852 1296.92 720.962 1286.48 777.004 1405.89C795.692 1445.7 801.344 1492.08 828.493 1526.74C858.333 1564.83 913.065 1581.22 958.642 1565.72L958.705 1565.74Z" fill="url(#paint0_linear_946_647)"/>
<defs>
<linearGradient id="paint0_linear_946_647" x1="928.402" y1="121.991" x2="177.408" y2="1439.27" gradientUnits="userSpaceOnUse">
<stop stop-color="#596E37" stop-opacity="0"/>
<stop offset="1" stop-color="#596E37"/>
</linearGradient>
</defs>
</svg>
