<svg width="1030" height="1132" viewBox="0 0 1030 1132" fill="none" xmlns="http://www.w3.org/2000/svg">
<path d="M740.725 198.555C706.372 197.677 674.225 181.962 645.228 163.549C598.007 133.547 556.199 95.7009 510.392 63.5572C464.586 31.4135 413.005 4.47438 357.192 0.721812C301.378 -3.03076 240.857 20.6421 212.341 69.9217C176.447 131.991 200.575 211.893 238.875 271.558C277.175 331.224 329.136 382.906 353.962 449.611C391.74 551.043 352.792 677.127 264.338 739.665C190.705 791.756 88.9437 803.529 33.6072 875.292C0.773992 917.843 -8.79634 977.645 9.12232 1028.02C27.0706 1078.4 71.901 1117.63 123.685 1128.25C209.32 1145.83 292.087 1089.7 361.945 1035.23C431.793 980.786 511.206 921.814 597.97 932.818C655.323 940.112 705.834 977.739 763.543 981.828C820.678 985.859 876.666 955.318 915.763 912.261C954.86 869.204 979.321 814.762 999.592 760.048C1027.41 684.911 1047.07 595.704 1004.12 529.2C974.564 483.463 918.909 455.419 903.275 402.963C893.526 370.258 901.768 334.992 909.281 301.495C916.795 267.998 923.442 231.992 910.865 200.347C873.145 105.282 797.905 200.015 740.706 198.515L740.725 198.555Z" fill="url(#paint0_linear_946_645)"/>
<defs>
<linearGradient id="paint0_linear_946_645" x1="1111.95" y1="349.329" x2="-229.123" y2="804.941" gradientUnits="userSpaceOnUse">
<stop stop-color="#596E37"/>
<stop offset="1" stop-color="#596E37" stop-opacity="0"/>
</linearGradient>
</defs>
</svg>
