<svg width="1598" height="1777" viewBox="0 0 1598 1777" fill="none" xmlns="http://www.w3.org/2000/svg">
<path d="M1134.72 1769.48C1178.27 1754.57 1212.24 1716.18 1224.11 1671.98C1230.62 1647.71 1229.2 1621.61 1231.55 1596.73C1234.09 1570.02 1238.33 1543.29 1246.76 1517.72C1264.27 1464.67 1299.19 1425.84 1351.69 1406.6C1410.87 1384.91 1475.23 1382.94 1538.28 1382.55C1601.29 1382.12 1665.31 1382.82 1726.05 1365.9C1835.94 1335.31 1926.27 1245.21 1961.31 1136.66C1996.35 1028.11 1976.68 904.291 1913.33 809.416C1849.99 714.542 1745.19 649.529 1632.72 630.455C1587.09 622.706 1539.99 622.071 1495.93 607.892C1437.28 589.066 1397.15 544.69 1395.95 482.097C1395.34 449.941 1408.98 419.392 1422.31 390.144C1460.76 305.852 1499.21 221.559 1537.63 137.291C1550.52 109.037 1563.57 80.1568 1566.82 49.2785C1574.55 -24.0949 1513.36 -83.2746 1442.68 -89.4142C1375.27 -95.2326 1314.87 -41.5271 1287.52 20.3768C1260.16 82.2808 1257.45 151.672 1248.81 218.778C1240.17 285.884 1223.06 356.188 1174.9 403.677C1123.08 454.768 1043.44 469.378 971.652 457.544C899.868 445.709 834.127 410.823 771.441 373.827C708.756 336.831 647.038 296.841 578.264 273.101C476.062 237.818 361.014 241.165 261.014 282.343C161.014 323.522 77.0091 402.188 29.2861 499.242C4.85002 548.985 -10.216 607.551 8.60007 659.706C27.3918 711.835 90.3169 749.875 140.406 726.159C206.292 694.968 275.751 659.969 348.072 650.897C420.394 641.825 497.319 653.216 557.454 694.385C617.589 735.554 657.494 809.455 646.854 881.587C637.517 945.007 593.319 996.754 552.709 1046.34C512.099 1095.92 471.445 1152.21 471.65 1216.31C471.816 1280.1 514.002 1337.9 566.837 1373.68C682.14 1451.72 853.349 1438.79 919.479 1580.36C941.531 1627.56 948.075 1682.6 980.196 1723.66C1015.5 1768.77 1080.45 1788.03 1134.64 1769.46L1134.72 1769.48Z" fill="url(#paint0_linear_946_433)"/>
<defs>
<linearGradient id="paint0_linear_946_433" x1="1104" y1="55.5" x2="212.697" y2="1625.33" gradientUnits="userSpaceOnUse">
<stop stop-color="#135F69" stop-opacity="0"/>
<stop offset="1" stop-color="#135F69"/>
</linearGradient>
</defs>
</svg>
