<svg width="1473" height="1596" viewBox="0 0 1473 1596" fill="none" xmlns="http://www.w3.org/2000/svg">
<path d="M1055.67 283.318C1006.43 281.797 960.227 259.349 918.517 233.117C850.592 190.376 790.362 136.605 724.447 90.8519C658.532 45.0986 584.383 6.64548 504.359 0.89078C424.334 -4.86392 337.787 28.0601 297.321 97.3957C246.384 184.727 281.62 297.724 337.001 382.269C392.383 466.814 467.279 540.2 503.406 634.573C558.383 778.076 503.593 955.754 377.329 1043.32C272.223 1116.25 126.471 1132.04 47.7481 1232.9C1.03868 1292.7 -12.1881 1377.04 13.9061 1448.3C40.0428 1519.57 104.617 1575.33 178.922 1590.75C301.801 1616.26 419.967 1537.7 519.644 1461.37C619.307 1385.08 732.641 1302.48 857.086 1318.73C939.345 1329.49 1012.05 1383.03 1094.79 1389.27C1176.71 1395.43 1256.71 1352.77 1312.39 1292.31C1368.07 1231.84 1402.69 1155.19 1431.29 1078.11C1470.55 972.268 1497.99 846.493 1435.9 752.255C1393.15 687.446 1313.16 647.399 1290.32 573.218C1276.08 526.967 1287.6 477.248 1298.1 430.021C1308.59 382.794 1317.82 332.018 1299.54 287.241C1244.7 152.726 1137.64 285.848 1055.65 283.261L1055.67 283.318Z" fill="url(#paint0_linear_946_435)"/>
<defs>
<linearGradient id="paint0_linear_946_435" x1="1588.96" y1="499.21" x2="-317.143" y2="1166.4" gradientUnits="userSpaceOnUse">
<stop stop-color="#135F69"/>
<stop offset="1" stop-color="#135F69" stop-opacity="0"/>
</linearGradient>
</defs>
</svg>
