<svg width="1514" height="1862" viewBox="0 0 1514 1862" fill="none" xmlns="http://www.w3.org/2000/svg">
<path d="M1319.14 1499.4C1302.15 1547.46 1283.66 1597.02 1281.88 1648.54C1280.32 1692.75 1293.88 1722.23 1270.66 1762.67C1226.13 1840.23 1127.61 1873.05 1042.05 1858.73C942.549 1842.08 858.549 1777.86 779.059 1715.73C678.263 1636.93 577.467 1558.13 476.689 1479.31C332.939 1366.92 185.595 1250.47 94.7177 1092.29C22.2997 966.225 -10.0237 817.567 3.53893 672.865C22.0221 476.171 122.004 295.486 244.512 140.586C287.037 86.8359 335.404 33.3445 399.931 10.2541C517.343 -31.7589 573.776 77.1615 672.977 110.72C783.69 148.181 903.828 139.355 1020.61 134.804C1137.39 130.254 1259.85 131.722 1363.1 186.521C1466.35 241.32 1541.76 365.885 1503.21 476.163C1476.03 553.863 1401.51 604.95 1326.09 637.884C1250.66 670.817 1169.18 691.61 1100.07 736.341C1030.97 781.071 974.448 859.134 986.917 940.501C1000.07 1026.35 1081.42 1082.74 1156.99 1125.6C1232.57 1168.46 1316.52 1216.24 1342.7 1299.03C1363.34 1364.36 1341.95 1434.8 1319.15 1499.37L1319.14 1499.4Z" fill="url(#paint0_linear_946_432)"/>
<defs>
<linearGradient id="paint0_linear_946_432" x1="632.5" y1="-224" x2="872" y2="1327" gradientUnits="userSpaceOnUse">
<stop stop-color="#135F69"/>
<stop offset="1" stop-color="#135F69" stop-opacity="0"/>
</linearGradient>
</defs>
</svg>
