<svg width="759" height="1981" viewBox="0 0 759 1981" fill="none" xmlns="http://www.w3.org/2000/svg">
<path d="M751.221 840.407C736.084 796.925 697.524 763.152 653.271 751.511C628.966 745.116 602.872 746.666 577.982 744.443C551.256 742.035 524.507 737.936 498.9 729.633C445.762 712.386 406.752 677.666 387.252 625.263C365.261 566.196 362.971 501.843 362.254 438.803C361.511 375.786 361.885 311.77 344.664 251.111C313.516 141.38 222.965 51.5063 114.242 17.0107C5.51909 -17.4849 -118.203 2.8169 -212.757 66.6393C-307.312 130.462 -371.795 235.587 -390.303 348.144C-397.822 393.814 -398.219 440.92 -412.176 485.049C-430.707 543.799 -474.88 584.149 -537.466 585.658C-569.618 586.436 -600.236 572.953 -629.551 559.763C-714.036 521.741 -798.521 483.72 -882.981 445.724C-911.3 432.97 -940.245 420.069 -971.14 416.975C-1044.55 409.613 -1103.42 471.103 -1109.21 541.813C-1114.68 609.251 -1060.67 669.379 -998.634 696.422C-936.593 723.464 -867.188 725.829 -800.04 734.129C-732.892 742.43 -662.502 759.186 -614.771 807.103C-563.42 858.667 -548.409 938.235 -559.882 1010.08C-571.354 1081.92 -605.909 1147.84 -642.589 1210.71C-679.269 1273.58 -718.947 1335.5 -742.339 1404.39C-777.108 1506.77 -773.181 1621.8 -731.5 1721.59C-689.818 1821.38 -610.73 1904.99 -513.436 1952.22C-463.571 1976.41 -404.929 1991.18 -352.87 1972.1C-300.836 1953.05 -263.114 1889.93 -287.082 1839.96C-318.605 1774.23 -353.953 1704.95 -363.389 1632.68C-372.825 1560.4 -361.822 1483.42 -320.956 1423.08C-280.091 1362.74 -206.392 1322.46 -134.208 1332.74C-70.7414 1341.75 -18.7719 1385.69 31.0136 1426.05C80.7991 1466.41 137.298 1506.78 201.392 1506.25C265.183 1505.76 322.774 1463.29 358.285 1410.27C435.746 1294.58 421.951 1123.44 563.188 1056.59C610.276 1034.3 665.281 1027.48 706.174 995.157C751.104 959.626 770.035 894.579 751.194 840.482L751.221 840.407Z" fill="url(#paint0_linear_946_552)"/>
<defs>
<linearGradient id="paint0_linear_946_552" x1="-80.6651" y1="-193.946" x2="-514.542" y2="2137.43" gradientUnits="userSpaceOnUse">
<stop stop-color="#596E37" stop-opacity="0"/>
<stop offset="1" stop-color="#596E37"/>
</linearGradient>
</defs>
</svg>
