<svg width="1685" height="2097" viewBox="0 0 1685 2097" fill="none" xmlns="http://www.w3.org/2000/svg">
<path opacity="0.88" d="M741.858 1845.13C781.376 1881.64 823.043 1918.8 850.074 1966.03C873.299 2006.53 875.153 2040.73 916.747 2067.05C996.5 2117.53 1104.64 2099.66 1177.46 2044.16C1262.16 1979.63 1308.96 1878.31 1352.57 1781.17C1407.87 1657.98 1463.18 1534.78 1518.45 1411.58C1597.31 1235.88 1677.53 1054.61 1684.48 862.192C1690.02 708.849 1647 554.151 1563.09 425.74C1448.99 251.214 1266.68 131.761 1076.04 47.4722C1009.88 18.2314 938.388 -7.89193 866.778 2.32354C736.48 20.9124 737.425 150.383 661.339 230.557C576.426 320.041 459.923 370.955 348.66 424.207C237.398 477.458 123.791 539.127 54.3843 641.123C-15.0227 743.118 -24.0915 896.539 66.1941 980.511C129.826 1039.67 224.553 1050.67 311.181 1044.28C397.809 1037.88 484.117 1017.18 570.657 1024.91C657.197 1032.64 748.397 1077.69 776.82 1159.79C806.811 1246.41 758.63 1339.12 709.182 1416.34C659.734 1493.56 604.877 1579.5 621.204 1669.68C634.097 1740.83 688.75 1796.06 741.829 1845.12L741.858 1845.13Z" fill="url(#paint0_linear_946_553)"/>
<defs>
<linearGradient id="paint0_linear_946_553" x1="199.116" y1="153.121" x2="1437.17" y2="1977.01" gradientUnits="userSpaceOnUse">
<stop stop-color="#596E37"/>
<stop offset="1" stop-color="#596E37" stop-opacity="0"/>
</linearGradient>
</defs>
</svg>
