<svg width="1814" height="1674" viewBox="0 0 1814 1674" fill="none" xmlns="http://www.w3.org/2000/svg">
<path opacity="0.8" d="M1642.18 1109.75C1638.06 1051.74 1658.89 994.786 1684.69 942.658C1726.74 857.765 1782.66 780.585 1828.49 697.691C1874.32 614.797 1910.58 523.109 1907.75 428.442C1904.91 333.774 1855.87 236.085 1769.59 196.876C1660.92 147.53 1532.45 202.458 1439.8 277.633C1347.15 352.809 1269.95 449.563 1163.46 503.305C1001.52 585.075 786.292 542.038 668.321 404.257C570.065 289.57 534.046 120.298 406.163 39.9425C330.334 -7.74056 229.695 -13.16 149.141 26.0284C68.5751 65.2683 10.8391 147.787 1.64415 236.897C-13.5815 384.26 92.8458 513.61 194.436 621.514C295.975 729.407 406.571 852.598 402.415 1000.69C399.635 1098.58 345.486 1190.38 348.073 1288.3C350.664 1385.24 410.353 1474.07 488.037 1532.21C565.722 1590.35 659.896 1621.81 753.842 1646.16C882.849 1679.57 1033.85 1696.71 1137.07 1612.5C1208.06 1554.53 1245.49 1455.78 1329.87 1420.07C1382.48 1397.8 1442.25 1405.37 1498.97 1412.03C1555.69 1418.69 1616.43 1423.45 1666.82 1396.61C1818.21 1316.07 1649.04 1206.31 1642.25 1109.71L1642.18 1109.75Z" fill="url(#paint0_linear_946_554)"/>
<defs>
<linearGradient id="paint0_linear_946_554" x1="1452.59" y1="1761.91" x2="440.526" y2="-396.555" gradientUnits="userSpaceOnUse">
<stop stop-color="#596E37"/>
<stop offset="1" stop-color="#596E37" stop-opacity="0"/>
</linearGradient>
</defs>
</svg>
