<svg width="1349" height="1731" viewBox="0 0 1349 1731" fill="none" xmlns="http://www.w3.org/2000/svg">
<path d="M1426.35 136.403C1387.22 118.862 1339.68 123.397 1303.51 145.938C1283.64 158.318 1268 176.988 1250.59 192.43C1231.87 208.999 1211.99 224.502 1190 236.544C1144.34 261.521 1095.88 265.755 1047.91 245.467C993.828 222.606 948.763 183.018 905.592 143.203C862.421 103.421 819.287 62.2427 767.18 35.1325C672.921 -13.913 554.14 -10.017 461.263 41.5941C368.386 93.2053 303.048 190.01 285.843 294.874C268.637 399.739 298.64 510.634 363.069 595.129C389.206 629.42 420.868 659.803 441.844 697.471C469.803 747.584 468.902 803.308 429.914 846.677C409.887 868.958 381.178 881.083 353.501 892.513C273.73 925.448 193.959 958.383 114.222 991.318C87.476 1002.35 60.2312 1013.72 38.3846 1032.67C-13.5344 1077.7 -9.50788 1156.9 34.7033 1206.02C76.893 1252.84 152.159 1254.69 210.143 1229.94C268.127 1205.2 314.099 1159.68 362.649 1119.5C411.2 1079.31 467.552 1042.33 530.531 1040.62C598.295 1038.79 661.802 1079.49 703.144 1133.19C744.486 1186.89 767.056 1252.44 786.205 1317.49C805.353 1382.53 821.939 1449 853.662 1508.89C900.8 1597.89 981.247 1668.77 1075.51 1704.33C1169.76 1739.88 1276.97 1739.74 1371.17 1704.02C1419.44 1685.7 1466.93 1655.41 1487.29 1607.94C1507.64 1560.5 1488.99 1494.59 1439.82 1478.89C1375.13 1458.23 1305.59 1437.89 1250.59 1398.08C1195.59 1358.27 1150.47 1301.6 1135.71 1235.33C1120.95 1169.07 1140.77 1093.39 1193.88 1051.05C1240.57 1013.81 1303.56 1006.69 1362.73 998.762C1421.9 990.832 1485.37 978.36 1525.99 934.596C1566.44 891.064 1574.48 824.89 1561.26 766.938C1532.39 640.494 1407.62 540.433 1452.62 402.007C1467.62 355.855 1498.17 314.226 1502.4 265.854C1507.05 212.697 1475.09 158.288 1426.39 136.47L1426.35 136.403Z" fill="url(#paint0_linear_946_422)"/>
<defs>
<linearGradient id="paint0_linear_946_422" x1="193.731" y1="38.7887" x2="1495.95" y2="1823.17" gradientUnits="userSpaceOnUse">
<stop stop-color="#E3E3C4" stop-opacity="0"/>
<stop offset="1" stop-color="#E3E3C4"/>
</linearGradient>
</defs>
</svg>
