<svg width="1920" height="3160" viewBox="0 0 1920 3160" fill="none" xmlns="http://www.w3.org/2000/svg">
<path d="M2388.43 0.5C2207.87 0.5 2207.87 69.77 2027.32 69.77C1846.77 69.77 1846.75 0.5 1666.2 0.5C1485.65 0.5 1485.68 69.77 1305.13 69.77C1124.58 69.77 1124.57 0.5 944.01 0.5C763.45 0.5 763.45 69.77 582.89 69.77C402.33 69.77 402.38 0.5 221.82 0.5C41.26 0.5 39.42 69.77 -139.29 69.77C-318 69.77 -319.81 1.88 -495 0.54L-495 3103.86C-418.39 3124.09 -381.62 3159.54 -252.43 3159.54C-71.87 3159.54 -71.87 3090.27 108.69 3090.27C289.25 3090.27 289.25 3159.54 469.8 3159.54C650.35 3159.54 650.32 3090.27 830.87 3090.27C1011.42 3090.27 1011.42 3159.54 1191.98 3159.54C1372.54 3159.54 1372.54 3090.27 1553.1 3090.27C1733.66 3090.27 1733.61 3159.54 1914.17 3159.54C2094.73 3159.54 2096.57 3090.27 2275.28 3090.27C2453.99 3090.27 2455.8 3158.16 2630.99 3159.5V56.18C2554.38 35.95 2517.61 0.5 2388.42 0.5H2388.43Z" fill="url(#paint0_linear_946_547)"/>
<defs>
<linearGradient id="paint0_linear_946_547" x1="-113.35" y1="1033.94" x2="2808.54" y2="683.561" gradientUnits="userSpaceOnUse">
<stop stop-color="#E3E3C4"/>
<stop offset="1" stop-color="#E3E3C4" stop-opacity="0"/>
</linearGradient>
</defs>
</svg>
