<svg width="263" height="45" viewBox="0 0 263 45" fill="none" xmlns="http://www.w3.org/2000/svg">
<path d="M143.783 14.5256C143.914 14.4677 144.029 14.3808 144.119 14.2716C144.21 14.1624 144.274 14.0339 144.305 13.8962C144.39 13.4693 144.33 13.0267 144.133 12.6374C143.834 12.0364 143.357 11.5401 142.764 11.215C142.044 10.8137 141.219 10.6319 140.395 10.6926C139.873 10.7344 139.361 10.8576 138.879 11.0577C138.27 11.3024 137.706 11.6448 137.21 12.071C136.68 12.5273 136.223 13.0599 135.853 13.6507C135.497 14.2258 135.217 14.8434 135.019 15.4885C134.854 16.0677 134.754 16.6628 134.72 17.2634C134.72 17.5403 134.72 17.7984 134.72 18.0375C134.72 18.2767 134.72 18.5096 134.777 18.711C134.834 18.9124 134.847 19.1012 134.879 19.2585C134.911 19.4159 134.962 19.5543 135 19.6676C135.083 19.8879 135.153 20.0075 135.216 20.0075C135.28 20.0075 135.344 19.8879 135.433 19.6802C135.522 19.4725 135.643 19.1515 135.771 18.8242C135.841 18.648 135.93 18.4655 136.013 18.2704C136.095 18.0753 136.204 17.8739 136.312 17.641C136.541 17.2112 136.805 16.8007 137.102 16.4137C137.398 16.0455 137.736 15.7119 138.108 15.4193C138.432 15.1631 138.79 14.9513 139.172 14.7899C139.459 14.6609 139.764 14.572 140.076 14.5256H140.669C140.949 14.5256 141.178 14.4878 141.401 14.4815C141.649 14.4569 141.898 14.4569 142.146 14.4815C142.68 14.6255 143.242 14.6406 143.783 14.5256Z" fill="#AC6231"/>
<path d="M135.357 10.0381C133.847 13.4242 133.446 18.1697 133.395 18.7928C133.395 18.8369 133.395 18.862 133.338 18.862L131.866 20.511C131.821 20.5629 131.765 20.6046 131.701 20.6332C131.638 20.6618 131.57 20.6765 131.5 20.6765C131.431 20.6765 131.362 20.6618 131.299 20.6332C131.235 20.6046 131.179 20.5629 131.134 20.511L129.662 18.862C129.662 18.862 129.611 18.862 129.605 18.7928C129.383 15.7967 128.725 12.848 127.65 10.0381C127.65 10.0381 130.682 4.63171 131.363 3.51142C131.376 3.48621 131.395 3.46501 131.419 3.45018C131.444 3.43536 131.472 3.42748 131.5 3.42748C131.528 3.42748 131.556 3.43536 131.581 3.45018C131.605 3.46501 131.624 3.48621 131.637 3.51142C132.325 4.63171 135.369 10.0129 135.357 10.0381Z" fill="#AC6231"/>
<path d="M119.026 14.5256C118.895 14.4678 118.78 14.3808 118.69 14.2716C118.599 14.1624 118.535 14.0339 118.504 13.8962C118.416 13.4695 118.476 13.0259 118.675 12.6374C118.975 12.0365 119.452 11.5402 120.045 11.215C120.763 10.8142 121.585 10.6325 122.408 10.6926C122.932 10.7337 123.446 10.8569 123.93 11.0577C124.537 11.3025 125.099 11.6449 125.592 12.071C126.126 12.5251 126.586 13.058 126.956 13.6507C127.312 14.2247 127.591 14.8426 127.784 15.4886C127.95 16.0675 128.053 16.6626 128.089 17.2634C128.089 17.5403 128.089 17.7984 128.089 18.0375C128.089 18.2767 128.057 18.5096 128.026 18.711C127.994 18.9124 127.962 19.1012 127.93 19.2585C127.898 19.4159 127.847 19.5543 127.809 19.6676C127.726 19.8879 127.656 20.0075 127.592 20.0075C127.529 20.0075 127.465 19.8879 127.376 19.6802C127.287 19.4725 127.166 19.1515 127.038 18.8243C126.968 18.648 126.879 18.4655 126.796 18.2704C126.714 18.0753 126.605 17.8739 126.497 17.641C126.269 17.2201 126.007 16.8181 125.714 16.4389C125.417 16.0707 125.08 15.7371 124.707 15.4445C124.382 15.1896 124.024 14.978 123.644 14.8151C123.356 14.6862 123.051 14.5972 122.739 14.5507H122.147C121.866 14.5507 121.637 14.513 121.414 14.5067C121.166 14.482 120.917 14.482 120.669 14.5067C120.131 14.6434 119.567 14.6499 119.026 14.5256Z" fill="#AC6231"/>
<path d="M131.471 21.8201C131.471 21.8201 128.726 27.5726 131.471 27.5852C134.217 27.5978 131.631 21.4488 131.471 21.8201Z" fill="#AC6231"/>
<path d="M132.962 21.8327C132.962 21.8327 134.796 26.2384 136.191 24.753C137.586 23.2677 132.853 21.5683 132.962 21.8327Z" fill="#AC6231"/>
<path d="M129.981 22.0026C129.981 22.0026 125.217 22.7768 126.382 24.4572C127.548 26.1377 130.268 21.9523 129.981 22.0026Z" fill="#AC6231"/>
<path d="M240.411 10.8437C240.134 9.66456 239.693 8.52916 239.099 7.47019C238.572 6.54368 237.942 5.67819 237.22 4.88975C236.556 4.17266 235.825 3.5194 235.036 2.93868L234.45 2.52327C234.348 2.45404 234.246 2.3848 234.138 2.32187L233.826 2.12676C233.615 1.99459 233.392 1.88759 233.189 1.76801L232.864 1.5981L232.533 1.45332C231.662 1.0557 230.753 0.7478 229.819 0.534446C228.918 0.313748 228 0.166392 227.074 0.0938716C225.294 -0.0468436 223.502 0.0356402 221.743 0.339339C220.883 0.484372 220.032 0.67982 219.195 0.924659C218.788 1.03795 218.386 1.18271 217.992 1.32117C217.788 1.38411 217.597 1.47221 217.399 1.54774C217.202 1.62326 217.011 1.69879 216.82 1.78691L216.253 2.03864L215.692 2.31557L215.418 2.45405L215.151 2.61139L214.616 2.91348L214.1 3.24077L213.845 3.40442L213.597 3.58063L213.106 3.93308L212.635 4.31073C212.477 4.43222 212.326 4.5625 212.183 4.70094L211.743 5.10375C211.469 5.38698 211.183 5.6576 210.934 5.9597C210.425 6.54597 209.973 7.17812 209.584 7.84785C209.489 8.01148 209.399 8.1814 209.31 8.34504L209.176 8.59051L209.075 8.86114L208.845 9.37724L208.661 9.89963L208.565 10.164C208.565 10.2458 208.52 10.3402 208.495 10.4283C208.469 10.5164 208.406 10.7808 208.355 10.957L208.259 11.4919L208.215 11.7563C208.215 11.8444 208.215 11.9325 208.215 12.0206C208.215 12.1088 208.183 12.3794 208.17 12.5493C208.157 12.7192 208.17 12.9018 208.17 13.078V13.6004L208.208 14.1102L208.285 14.6137C208.285 14.6955 208.285 14.7773 208.329 14.8592L208.387 15.1046L208.501 15.5892L208.654 16.055L208.731 16.2815L208.826 16.5081C208.89 16.6529 208.947 16.8039 209.011 16.9487L209.227 17.3704L209.329 17.5718L209.45 17.7732L209.692 18.1634C209.775 18.2893 209.871 18.4088 209.954 18.5347C210.128 18.7728 210.315 19.0018 210.514 19.2208C211.24 20.044 212.117 20.7232 213.1 21.2222C213.947 21.6602 214.865 21.9458 215.813 22.0655C216.6 22.1755 217.4 22.1606 218.183 22.0215L218.437 21.9837L218.686 21.9208L219.151 21.8012C219.444 21.7005 219.718 21.6124 219.966 21.5117L220.603 21.197L220.813 21.0711C221.587 20.9367 222.285 20.5285 222.777 19.9228C223.269 19.3171 223.52 18.5553 223.485 17.7795C223.45 17.0038 223.131 16.2671 222.586 15.7072C222.042 15.1472 221.31 14.8021 220.527 14.7363C219.744 14.6706 218.963 14.8887 218.331 15.35C217.699 15.8112 217.258 16.484 217.091 17.2428C216.924 18.0016 217.043 18.7945 217.424 19.4735C217.805 20.1525 218.424 20.6712 219.163 20.9327L218.921 20.9767L218.495 21.0334H218.036C216.533 21.1199 215.038 20.7533 213.75 19.9823C212.959 19.5109 212.263 18.8984 211.699 18.176C211.544 17.9845 211.399 17.7849 211.266 17.578L211.068 17.2634L210.89 16.9298L210.794 16.7662L210.718 16.59L210.559 16.2375L210.425 15.8661L210.361 15.6836L210.304 15.4885L210.202 15.1046L210.125 14.7081L210.081 14.5067V14.3053C210.081 14.1731 210.049 14.0346 210.03 13.8962C210.011 13.7577 210.03 13.6193 210.03 13.4808V12.6311L210.087 12.2094C210.087 12.1402 210.087 12.0647 210.087 11.9954L210.132 11.7815C210.132 11.643 210.189 11.4982 210.221 11.3598L210.355 10.9318C210.355 10.8626 210.393 10.7934 210.418 10.7241L210.501 10.5101L210.667 10.0947C210.731 9.95627 210.801 9.81779 210.871 9.67933L210.985 9.49052L211.106 9.28911C211.183 9.15694 211.266 9.02476 211.342 8.8863C212.893 6.61013 215.117 4.86272 217.711 3.88276L218.227 3.67505C218.406 3.61211 218.577 3.54289 218.756 3.48624C219.113 3.37295 219.469 3.24706 219.839 3.15265C220.579 2.94528 221.332 2.78341 222.093 2.66802C223.656 2.42096 225.243 2.36603 226.819 2.50441C227.62 2.57978 228.414 2.7123 229.195 2.90092C229.973 3.08928 230.73 3.35279 231.456 3.68765L231.73 3.80719L231.991 3.94568C232.169 4.03302 232.342 4.13182 232.507 4.24147L232.762 4.39255L233.01 4.56246C233.182 4.67575 233.348 4.79533 233.513 4.91491C234.176 5.40368 234.79 5.95376 235.348 6.55762C235.941 7.20372 236.46 7.91296 236.896 8.67233C237.382 9.5316 237.746 10.4528 237.978 11.4101C238.23 12.4823 238.33 13.5836 238.278 14.6829C238.278 14.9724 238.233 15.2619 238.201 15.5578C238.169 15.8536 238.118 16.1494 238.074 16.4515C237.822 17.6974 237.418 18.9084 236.87 20.0578C236.573 20.6616 236.242 21.2479 235.876 21.8138C235.488 22.3982 235.063 22.9573 234.603 23.4879C234.367 23.7523 234.138 24.0292 233.883 24.281C233.755 24.4068 233.634 24.539 233.501 24.6649L233.106 25.0362C232.972 25.1621 232.832 25.2754 232.692 25.395C232.552 25.5146 232.412 25.6341 232.265 25.7474L231.348 26.4523C231.195 26.5719 231.042 26.6915 230.883 26.8048L230.405 27.1383L229.921 27.4719C229.764 27.5903 229.6 27.6996 229.431 27.7992C229.1 28.0132 228.794 28.2209 228.424 28.4286C228.055 28.6363 227.73 28.8188 227.386 29.0139C227.042 29.209 226.673 29.3853 226.31 29.5615L225.768 29.8258C225.584 29.9139 225.393 29.9832 225.208 30.065L224.641 30.2978C224.454 30.3815 224.263 30.4551 224.068 30.5181L222.902 30.9272L221.698 31.2671C221.501 31.33 221.291 31.3741 221.062 31.4244L220.425 31.5629C218.745 31.9291 217.043 32.1856 215.329 32.3307C214.896 32.3748 214.45 32.3937 214.011 32.4314L213.374 32.4755H212.705L211.367 32.5321H207.298L205.947 32.5007H205.272C205.043 32.5007 204.82 32.5007 204.591 32.4629L203.24 32.3748C202.788 32.3433 202.336 32.2867 201.884 32.2426C200.979 32.1671 200.075 32.0223 199.17 31.9028C198.718 31.8461 198.272 31.758 197.82 31.6888C197.368 31.6196 196.916 31.544 196.47 31.4496C195.572 31.2734 194.674 31.1098 193.782 30.9021C191.992 30.5181 190.221 30.0587 188.457 29.5929C186.693 29.1272 184.948 28.6174 183.222 28.1013C181.496 27.5852 179.77 27.0691 178.069 26.553C176.368 26.0369 174.674 25.5397 173.024 25.0551C169.712 24.067 166.49 23.0662 163.35 22.2606C161.783 21.8515 160.229 21.5054 158.713 21.2096C157.197 20.9138 155.694 20.7124 154.254 20.5802C151.532 20.3038 148.784 20.3842 146.082 20.8194C144.892 21.0158 143.725 21.33 142.598 21.7571C141.572 22.139 140.627 22.7092 139.815 23.4376C139.453 23.7824 139.141 24.1741 138.885 24.602C138.662 24.9971 138.495 25.4207 138.388 25.8607L138.331 26.1817C138.314 26.2859 138.303 26.391 138.299 26.4964C138.283 26.7059 138.283 26.9163 138.299 27.1258C138.324 27.5041 138.394 27.8781 138.509 28.2398C138.697 28.8549 139.029 29.4178 139.477 29.8825C139.808 30.2262 140.237 30.4613 140.707 30.5559C140.992 30.6214 141.288 30.6214 141.573 30.5559C141.644 30.5391 141.714 30.5181 141.783 30.4929L141.853 30.4552C141.755 30.4635 141.657 30.4783 141.56 30.4992C141.289 30.5538 141.01 30.5538 140.739 30.4992C140.304 30.3868 139.915 30.1452 139.624 29.8069C139.221 29.3526 138.931 28.8117 138.777 28.2272C138.683 27.884 138.63 27.5313 138.618 27.1761C138.615 26.9845 138.628 26.793 138.656 26.6034C138.656 26.509 138.656 26.4083 138.694 26.3139L138.758 26.0181C138.868 25.609 139.035 25.2171 139.255 24.8537C139.501 24.4677 139.801 24.1181 140.146 23.8152C140.933 23.1537 141.838 22.6435 142.815 22.311C143.915 21.9295 145.05 21.6555 146.203 21.4928C148.851 21.1389 151.533 21.1262 154.184 21.4551C155.611 21.6376 157.069 21.8704 158.56 22.1914C160.05 22.5124 161.566 22.89 163.114 23.3306C166.197 24.1928 169.381 25.2565 172.668 26.3139C174.324 26.8362 175.986 27.3649 177.68 27.9125C179.375 28.4601 181.075 29.0139 182.776 29.5615C184.476 30.109 186.26 30.644 188.024 31.1601C189.788 31.6762 191.585 32.1608 193.4 32.5825C194.304 32.8028 195.215 32.9916 196.132 33.2119C196.584 33.3189 197.049 33.3881 197.508 33.4762C197.967 33.5643 198.425 33.6587 198.89 33.728C199.814 33.8664 200.737 34.0238 201.673 34.1245C202.138 34.1748 202.597 34.2378 203.068 34.2818L204.47 34.3951C204.699 34.3951 204.934 34.4392 205.164 34.4455H205.871L207.272 34.4958H211.406L212.781 34.458H213.463L214.151 34.4203C214.609 34.4203 215.062 34.3825 215.514 34.3448C217.328 34.2162 219.132 33.9724 220.915 33.6147L221.552 33.4699C221.775 33.4196 221.991 33.3818 222.189 33.3189L223.463 32.9601L224.737 32.5384C224.953 32.4737 225.165 32.3981 225.374 32.3119L226.01 32.0664C226.214 31.9783 226.424 31.909 226.647 31.8146L227.246 31.5377C227.641 31.3489 228.042 31.1727 228.418 30.9587C228.794 30.7447 229.182 30.5559 229.552 30.3293L230.641 29.6685C230.826 29.5615 230.998 29.4419 231.17 29.3223L231.685 28.9699L232.201 28.6237C232.373 28.5041 232.539 28.3782 232.705 28.2524L233.679 27.5223C233.845 27.3964 234.004 27.2579 234.169 27.1258C234.335 26.9936 234.488 26.8677 234.641 26.723L235.099 26.3076L235.539 25.8733C235.832 25.5901 236.099 25.2817 236.367 24.9796C236.891 24.383 237.374 23.7522 237.813 23.0914C238.244 22.4471 238.633 21.7765 238.978 21.0837C239.314 20.4113 239.603 19.7174 239.844 19.0068C240.797 16.3906 240.993 13.5639 240.411 10.8437Z" fill="#AC6231"/>
<path d="M158.757 29.6874C158.719 29.5678 158.802 29.423 158.999 29.2468C159.121 29.146 159.251 29.0555 159.388 28.9762C159.464 28.9321 159.554 28.8754 159.649 28.8314L159.955 28.7055C161.213 28.24 162.558 28.053 163.897 28.1579C165.826 28.2821 167.727 28.6806 169.54 29.3412C170.553 29.6936 171.585 30.109 172.623 30.5999C173.661 31.0908 174.7 31.5692 175.751 32.0853C179.986 34.1182 189.069 39.3483 198.043 41.3624C202 42.2513 206.032 42.7738 210.087 42.9232C210.89 42.9232 211.616 42.9924 212.266 43.005H213.922C214.407 42.9729 214.894 43.0132 215.367 43.1246C214.91 43.277 214.435 43.3721 213.953 43.4078L212.291 43.6407C211.654 43.7099 210.909 43.7603 210.1 43.8295C205.936 44.1632 201.748 44.045 197.61 43.4771C195.2 43.1119 192.815 42.599 190.47 41.9414C189.884 41.784 189.311 41.5889 188.731 41.419L187.871 41.1547L187.031 40.8651L185.374 40.2798L183.782 39.6504C183.26 39.4553 182.75 39.2476 182.254 39.021L180.801 38.3917C179.865 37.9826 178.973 37.5924 178.145 37.221C176.496 36.4721 175.101 35.8112 174.044 35.2888L171.005 33.7594C170.037 33.2811 169.095 32.8343 168.228 32.4314C166.692 31.7179 165.098 31.1305 163.464 30.6755C162.37 30.372 161.251 30.1615 160.12 30.0461L159.821 29.9957H159.56C159.414 29.98 159.269 29.9547 159.127 29.9202C158.91 29.8951 158.757 29.8069 158.757 29.6874Z" fill="#AC6231"/>
<path d="M250.672 11.9577C251.003 12.2346 250.997 12.8514 250.723 13.6319C250.349 14.5988 249.813 15.4966 249.137 16.2878C247.708 17.8872 246.114 19.3343 244.379 20.6054C243.507 21.2564 242.575 21.8253 241.596 22.3047C241.289 22.4574 240.969 22.5838 240.641 22.6824C240.405 22.7579 240.265 22.7767 240.239 22.7327C240.214 22.6886 240.29 22.5754 240.45 22.3928C240.609 22.2103 240.838 21.9712 241.087 21.6628C241.641 21.0334 242.36 20.2215 243.061 19.29C244.481 17.4019 245.914 15.2242 246.672 14.3053C247.316 13.493 248.094 12.793 248.972 12.2346C249.717 11.8004 250.341 11.6808 250.672 11.9577Z" fill="#AC6231"/>
<path d="M263.003 21.8327C263.003 22.9215 260.666 23.7208 257.908 23.8152C256.526 23.8593 253.449 23.6642 250.723 23.8845C249.354 23.9852 248.061 24.1614 247.099 24.3313C246.615 24.4006 246.227 24.4887 245.94 24.5201C245.653 24.5516 245.475 24.5201 245.449 24.5201C245.424 24.5201 245.532 24.3439 245.755 24.1551C246.059 23.8922 246.383 23.6523 246.723 23.4376C247.815 22.7343 248.979 22.1458 250.195 21.6816C251.584 21.1469 253.016 20.7259 254.475 20.4229C255.559 20.1851 256.66 20.0315 257.768 19.9634C259.032 19.8975 260.298 20.0749 261.494 20.4858C262.436 20.8194 263.01 21.2977 263.003 21.8327Z" fill="#AC6231"/>
<path d="M240.768 28.4412L239.271 29.6999C237.884 30.8444 236.434 31.9118 234.927 32.8972C232.662 34.3458 230.28 35.6088 227.807 36.6735C224.745 37.9796 221.538 38.926 218.253 39.4931C214.957 40.0561 211.6 40.1789 208.272 39.8581L207.699 39.8078L206.043 39.5624C205.686 39.5057 205.329 39.4679 204.986 39.3861L203.973 39.1595C203.336 39.0085 202.699 38.8826 202.062 38.6875C201.75 38.5994 201.425 38.4987 201.17 38.398C200.916 38.2973 200.603 38.1966 200.336 38.0896C199.26 37.6805 198.323 37.2651 197.495 36.9253C197.081 36.7553 196.699 36.5979 196.336 36.4595C195.973 36.321 195.655 36.2077 195.355 36.107L194.928 35.956C194.797 35.9155 194.669 35.865 194.546 35.8049C194.378 35.6995 194.193 35.6229 193.999 35.5784C193.876 35.5584 193.751 35.5584 193.629 35.5784H193.502L193.623 35.5343C193.745 35.4856 193.874 35.4559 194.005 35.4462C194.222 35.4557 194.437 35.4981 194.642 35.5721C194.865 35.635 195.132 35.6602 195.457 35.7168C195.782 35.7735 196.132 35.8175 196.508 35.8994C196.884 35.9812 197.304 36.0693 197.782 36.1763C198.661 36.384 199.654 36.6609 200.744 36.919C201.017 36.9882 201.298 37.0448 201.578 37.1078C201.858 37.1707 202.151 37.2273 202.444 37.2714C203.024 37.391 203.661 37.4413 204.31 37.5169L205.298 37.6364C205.629 37.6805 205.973 37.6805 206.323 37.7057L207.374 37.7686L207.909 37.8001C208.087 37.8001 208.272 37.8001 208.457 37.8001C211.601 37.8959 214.748 37.6894 217.851 37.1833C220.982 36.6502 224.064 35.8693 227.068 34.8483C229.539 33.9913 231.963 33.006 234.329 31.8965C236.348 30.9209 237.959 30.0587 239.055 29.4356L240.768 28.4412Z" fill="#AC6231"/>
<path d="M252.43 32.8406C251.5 33.3881 250.163 32.9664 249.105 31.9405C248.844 31.6825 248.468 31.2042 248.029 30.6818C247.575 30.1268 247.077 29.609 246.539 29.1335C246.114 28.7344 245.584 28.4617 245.01 28.3468C244.532 28.2713 244.137 28.4223 244.055 28.3153C243.972 28.2083 244.055 28.1706 244.125 27.9944C244.267 27.7525 244.466 27.5476 244.704 27.3964C245.066 27.162 245.478 27.0133 245.908 26.9622C246.409 26.9039 246.916 26.9208 247.411 27.0125C248.376 27.193 249.306 27.5267 250.163 28.0006C250.786 28.3186 251.364 28.7165 251.882 29.1839C252.479 29.7479 252.874 30.4876 253.01 31.2923C253.075 31.5781 253.055 31.8764 252.952 32.1512C252.849 32.4259 252.668 32.6654 252.43 32.8406Z" fill="#AC6231"/>
<path d="M22.5887 10.8185C22.8657 9.63938 23.3073 8.50402 23.9007 7.44505C24.438 6.51699 25.0789 5.65144 25.8115 4.86461C26.4757 4.14752 27.2072 3.49422 27.9962 2.91351L28.5821 2.49813C28.6777 2.4289 28.7859 2.35966 28.8942 2.29673L29.2063 2.10162C29.4165 1.96945 29.6394 1.85616 29.8432 1.74287L30.1681 1.57292L30.4993 1.42818C31.3703 1.03134 32.2793 0.721387 33.2126 0.502967C34.1127 0.287866 35.0284 0.142702 35.9514 0.0687315C37.7338 -0.0752608 39.5276 0.00720242 41.2888 0.314161C42.1499 0.455165 43.0009 0.650671 43.8365 0.89948C44.2505 1.01277 44.6518 1.15752 45.0467 1.28969C45.2505 1.35892 45.4416 1.44707 45.6391 1.5163C45.8365 1.58553 46.0276 1.67362 46.2186 1.76173L46.7855 2.0135L47.346 2.29043L47.6199 2.42891L47.8874 2.57995L48.4224 2.88834L48.9383 3.21563L49.1931 3.37924L49.4415 3.55549L49.9319 3.90794L50.4033 4.28555C50.5561 4.40513 50.709 4.5373 50.8555 4.67576L51.295 5.07858C51.5689 5.3618 51.8554 5.63242 52.1038 5.93453C52.6127 6.52079 53.0648 7.15294 53.4541 7.82267C53.5497 7.98631 53.6388 8.15626 53.728 8.3199L53.8618 8.56537L54.2057 9.3395L54.3904 9.86189L54.4796 10.1199C54.4796 10.208 54.5306 10.3024 54.556 10.3906L54.6898 10.9192C54.728 11.0955 54.7599 11.278 54.7917 11.4542L54.8363 11.7185C54.8363 11.8066 54.8363 11.8948 54.8363 11.9829C54.8363 12.071 54.8681 12.3353 54.8808 12.5116C54.8936 12.6878 54.8808 12.864 54.8808 13.0403V13.5312L54.8426 14.0409L54.7662 14.5445C54.7662 14.6263 54.7662 14.7081 54.7216 14.7899L54.6643 15.0354L54.5497 15.52L54.3968 15.9858L54.3204 16.2123L54.2248 16.4389C54.1611 16.5836 54.1038 16.7347 54.0401 16.8795C53.9764 17.0242 53.9 17.1564 53.8236 17.2949L53.7217 17.5025L53.6007 17.7039L53.3586 18.0942C53.2758 18.22 53.1803 18.3396 53.0975 18.4655C52.9227 18.7036 52.7357 18.9326 52.537 19.1515C51.8099 19.9733 50.9326 20.6523 49.951 21.153C49.1044 21.591 48.1856 21.8766 47.2377 21.9963C46.4504 22.1035 45.651 22.0886 44.8684 21.9523L44.6136 21.9145L44.3652 21.8516L43.9002 21.732C43.6072 21.6313 43.327 21.5432 43.085 21.4425L42.4162 21.1278L42.1996 21.0019C41.4222 20.8696 40.72 20.4622 40.2242 19.8558C39.7284 19.2495 39.4729 18.4855 39.5054 17.7066C39.5378 16.9277 39.856 16.187 40.4006 15.623C40.9451 15.0589 41.6788 14.71 42.4647 14.6413C43.2505 14.5726 44.0348 14.7889 44.6712 15.2497C45.3075 15.7105 45.7523 16.3844 45.9226 17.1456C46.093 17.9068 45.9772 18.7032 45.5968 19.3862C45.2164 20.0692 44.5975 20.592 43.8556 20.8572L44.0977 20.9075L44.5244 20.9578H44.983C46.4866 21.0443 47.9813 20.6778 49.2695 19.9068C50.0604 19.4354 50.7559 18.8229 51.3204 18.1005C51.4756 17.9105 51.6181 17.7107 51.7472 17.5025C51.8172 17.4018 51.8873 17.2948 51.951 17.1879L52.1293 16.8543C52.1612 16.7977 52.193 16.7473 52.2249 16.6844L52.3013 16.5144C52.3522 16.3948 52.4032 16.2752 52.4605 16.162L52.5943 15.7906L52.658 15.6081L52.7153 15.413L52.8172 15.0291L52.8936 14.6326L52.9318 14.4312C52.9353 14.3641 52.9353 14.2969 52.9318 14.2298C52.9318 14.0976 52.9318 13.9591 52.9764 13.8207V12.5619L52.9191 12.1402C52.9191 12.071 52.9191 11.9955 52.9191 11.9262L52.8745 11.7123C52.8745 11.5738 52.8172 11.429 52.779 11.2906C52.7408 11.1521 52.6962 11.0073 52.6516 10.8626C52.607 10.7178 52.6134 10.7241 52.5879 10.6549L52.5051 10.4409L52.3395 10.0255C52.2758 9.88703 52.2057 9.74859 52.1357 9.61012L52.0402 9.40242L51.9192 9.20101L51.6835 8.79824C50.1367 6.51094 47.912 4.75225 45.3142 3.76319L44.7919 3.56179C44.62 3.49885 44.448 3.42962 44.2696 3.37298C43.913 3.25969 43.5563 3.1338 43.1869 3.03939C42.4461 2.83201 41.6931 2.67015 40.9322 2.55475C39.3676 2.30756 37.778 2.25259 36.1998 2.39111C35.4014 2.46701 34.6096 2.59953 33.8304 2.78762C33.0524 2.97598 32.2951 3.23949 31.5693 3.57435L31.2954 3.69393L31.0343 3.83242C30.8574 3.92006 30.6852 4.01667 30.5184 4.12191L30.2636 4.27925L30.0088 4.4429L29.5057 4.80165C28.8462 5.29211 28.2343 5.84202 27.6777 6.44432C27.0836 7.08772 26.5645 7.79497 26.13 8.55277C25.6223 9.43803 25.2428 10.3893 25.0026 11.3787C24.7513 12.4509 24.6506 13.5521 24.7033 14.6515C24.7033 14.941 24.7478 15.2305 24.7733 15.5263C24.7988 15.8221 24.8625 16.1179 24.907 16.42C25.0282 17.0293 25.1877 17.6305 25.3847 18.22C25.5852 18.8377 25.8278 19.4411 26.1108 20.0264C26.4075 20.6301 26.7393 21.2165 27.1045 21.7824C27.4925 22.3667 27.9179 22.9259 28.3783 23.4565C28.614 23.7208 28.8433 23.9978 29.098 24.2495C29.2254 24.3754 29.3465 24.5076 29.4802 24.6334L29.8751 25.0048C30.0089 25.1307 30.149 25.2439 30.2891 25.3635C30.4292 25.4831 30.5693 25.6027 30.7158 25.716C31.0152 25.9489 31.3527 26.188 31.633 26.4209C31.7859 26.5405 31.9387 26.6601 32.098 26.7733L32.5757 27.1069C32.7349 27.2202 32.8941 27.3335 33.0597 27.4405C33.2253 27.5475 33.3782 27.667 33.5502 27.7677C33.8814 27.9817 34.1871 28.1894 34.5565 28.3971C34.9259 28.6048 35.2444 28.7873 35.5947 28.9824C35.945 29.1775 36.3081 29.3538 36.6711 29.53L37.2125 29.7944C37.3972 29.8825 37.5883 29.9517 37.773 30.0335L38.3399 30.2664C38.5246 30.3419 38.7157 30.4237 38.9131 30.4867L40.0787 30.8895L41.2825 31.2356C41.4799 31.2986 41.6837 31.3426 41.9194 31.393L42.5563 31.5315C44.2359 31.8976 45.938 32.1541 47.6517 32.2993C48.0848 32.3433 48.5307 32.3622 48.9702 32.3937L49.6071 32.444H50.244L51.5816 32.5007H55.6515L57.0018 32.4692H57.677C57.9063 32.4692 58.1292 32.4692 58.3585 32.4315L59.7088 32.3433C60.161 32.3433 60.6132 32.2552 61.0654 32.2112C61.9699 32.1356 62.8743 31.9909 63.7787 31.8713C64.2309 31.8147 64.6768 31.7265 65.129 31.6573C65.5812 31.5881 66.0271 31.5126 66.4793 31.4182C67.3774 31.242 68.2755 31.0783 69.1672 30.8706C70.9569 30.4867 72.7276 30.0272 74.4919 29.5615C76.2561 29.0958 77.9949 28.586 79.7274 28.0699C81.4598 27.5538 83.1795 27.0377 84.8801 26.5216C86.5807 26.0055 88.2749 25.5083 89.9246 25.0236C93.2366 24.0355 96.4595 23.0348 99.5995 22.2292C101.166 21.8201 102.72 21.4739 104.236 21.1781C105.752 20.8823 107.255 20.6809 108.695 20.5488C111.417 20.2691 114.166 20.3495 116.867 20.7879C118.057 20.9844 119.224 21.2985 120.351 21.7257C121.377 22.1091 122.321 22.6791 123.134 23.4061C123.497 23.7497 123.81 24.1416 124.064 24.5705C124.287 24.9657 124.454 25.3892 124.561 25.8293L124.618 26.1502C124.618 26.2509 124.618 26.3579 124.65 26.4649C124.666 26.6744 124.666 26.8848 124.65 27.0943C124.625 27.4726 124.555 27.8466 124.44 28.2083C124.25 28.8225 123.918 29.3847 123.472 29.851C123.141 30.1938 122.712 30.4287 122.242 30.5244C121.957 30.59 121.661 30.59 121.376 30.5244C121.305 30.5077 121.235 30.4867 121.166 30.4615L121.096 30.4237C121.194 30.4321 121.292 30.4468 121.389 30.4678C121.66 30.5224 121.939 30.5224 122.21 30.4678C122.645 30.3554 123.034 30.1137 123.325 29.7755C123.728 29.3212 124.018 28.7802 124.172 28.1957C124.282 27.8444 124.346 27.4806 124.363 27.1132C124.382 26.9227 124.382 26.7309 124.363 26.5405C124.363 26.4461 124.363 26.3454 124.325 26.2509C124.287 26.1565 124.28 26.0558 124.255 25.9551C124.15 25.5454 123.985 25.1531 123.765 24.7908C123.518 24.4048 123.218 24.0551 122.873 23.7523C122.089 23.0865 121.183 22.5759 120.204 22.2481C119.104 21.8666 117.97 21.5925 116.816 21.4299C114.169 21.0728 111.485 21.0601 108.835 21.3921C107.408 21.5746 105.95 21.8075 104.459 22.1285C102.969 22.4495 101.447 22.8271 99.9052 23.2677C96.8225 24.1299 93.6379 25.1936 90.3513 26.2509C88.6953 26.7733 87.0329 27.302 85.3387 27.8496C83.6445 28.3971 81.9439 28.951 80.2433 29.4985C78.5427 30.0461 76.7593 30.5748 74.995 31.0972C73.2307 31.6196 71.4346 32.0916 69.6193 32.5133C68.7149 32.7399 67.8041 32.9287 66.8869 33.1427C66.4347 33.2497 65.9697 33.3189 65.5112 33.407C65.0526 33.4951 64.594 33.5895 64.129 33.6588C63.2055 33.7972 62.282 33.9546 61.3457 34.049C60.8807 34.1056 60.4158 34.1686 59.9508 34.2126L58.5495 34.3259L57.8489 34.3762L57.1483 34.4077L55.7471 34.4581H51.6134L50.2377 34.4203H49.5561L48.8682 34.3825C48.4097 34.3825 47.9575 34.3448 47.4989 34.3007C45.6865 34.177 43.8843 33.9352 42.1041 33.5769L41.4672 33.4322C41.2442 33.3818 41.0277 33.3441 40.8302 33.2748L39.5564 32.9224L38.2825 32.5007C38.0653 32.4368 37.8526 32.359 37.6456 32.2678L37.0087 32.0287C36.8048 31.9405 36.5947 31.8713 36.3717 31.7769L35.773 31.4937C35.3781 31.3112 34.9769 31.1349 34.6011 30.9209C34.2253 30.707 33.8368 30.5181 33.4674 30.2916L32.2891 29.6307C32.1043 29.5237 31.9324 29.4042 31.7604 29.2846L31.2445 28.9321L30.7286 28.586C30.5566 28.4664 30.391 28.3405 30.2254 28.2146L29.2445 27.4845L28.7605 27.088C28.6013 26.9559 28.442 26.83 28.2891 26.6852L27.8306 26.2698C27.6777 26.1251 27.5376 25.9803 27.3911 25.8355C27.0981 25.5523 26.8306 25.2439 26.5631 24.9418C26.0387 24.3453 25.5557 23.7145 25.1172 23.0537C24.6839 22.4108 24.2945 21.7401 23.9517 21.046C23.6163 20.3735 23.3269 19.6797 23.0854 18.969C22.1586 16.3502 21.9866 13.5283 22.5887 10.8185Z" fill="#AC6231"/>
<path d="M104.275 29.6622C104.236 29.7817 104.09 29.8699 103.841 29.9328C103.701 29.9679 103.559 29.9931 103.415 30.0083H103.154L102.854 30.0524C101.724 30.1684 100.605 30.379 99.5103 30.6818C97.8772 31.1372 96.2839 31.7224 94.7461 32.4314C93.8608 32.8405 92.9373 33.2811 91.9691 33.7657L88.931 35.2951C87.8737 35.8175 86.4788 36.4784 84.8292 37.2336C84.0075 37.605 83.1158 37.9952 82.1732 38.4043L80.721 39.0336C80.2242 39.2413 79.721 39.449 79.1924 39.663L77.6064 40.2924L75.9504 40.8714L75.1096 41.161L74.2498 41.4316C73.6702 41.6015 73.097 41.7966 72.5046 41.954C70.1594 42.6143 67.7748 43.1293 65.3647 43.496C61.2368 44.0775 57.0568 44.2083 52.9 43.8862C52.0847 43.817 51.3523 43.7666 50.7026 43.6911L49.0466 43.4582C48.5633 43.4233 48.0874 43.3216 47.6326 43.1561C48.1055 43.0573 48.5896 43.0213 49.0721 43.0491H50.7345C51.3714 43.0491 52.1102 42.9988 52.9128 42.9736C56.9683 42.8248 61.0008 42.3002 64.957 41.4064C73.9696 39.3861 83.0458 34.1434 87.2495 32.1105C88.3004 31.5944 89.3386 31.0846 90.3768 30.6188C91.415 30.1531 92.4468 29.744 93.4531 29.3601C95.269 28.6994 97.1718 28.3009 99.1027 28.1768C100.442 28.0719 101.788 28.2588 103.045 28.7244C103.154 28.7622 103.255 28.8062 103.351 28.8503C103.442 28.892 103.529 28.9404 103.612 28.995C103.748 29.0759 103.878 29.1664 104.001 29.2656C104.23 29.3915 104.313 29.5426 104.275 29.6622Z" fill="#AC6231"/>
<path d="M12.3277 11.9325C12.6589 11.6556 13.2831 11.7752 14.0092 12.2095C14.8874 12.7679 15.6646 13.4678 16.3085 14.2801C17.0665 15.199 18.5123 17.427 19.9326 19.2522C20.6396 20.1774 21.353 21.0145 21.9071 21.6187C22.1746 21.9271 22.4039 22.1726 22.5441 22.3551C22.6842 22.5376 22.7734 22.6698 22.7479 22.7075C22.7224 22.7453 22.5823 22.7075 22.353 22.6446C22.0263 22.5431 21.7088 22.4147 21.4039 22.2607C20.4311 21.7792 19.5038 21.2126 18.6333 20.5676C16.8952 19.3014 15.2962 17.8586 13.8627 16.2627C13.1871 15.4715 12.651 14.5736 12.2768 13.6067C12.0029 12.8262 11.9965 12.2095 12.3277 11.9325Z" fill="#AC6231"/>
<path d="M-0.00317383 21.8075C-0.00317383 21.2725 0.563682 20.7753 1.49996 20.4229C2.6959 20.0115 3.96147 19.834 5.22601 19.9005C6.33399 19.9658 7.43503 20.1173 8.51892 20.3536C9.98155 20.6514 11.4156 21.0725 12.8054 21.6124C14.0222 22.0616 15.1861 22.6398 16.2767 23.3369C16.6194 23.5532 16.9433 23.7974 17.2448 24.067C17.4678 24.2558 17.5696 24.388 17.5442 24.4446C17.5187 24.5013 17.3467 24.495 17.0665 24.4446C16.7862 24.3943 16.385 24.325 15.9009 24.2495C14.7016 24.0379 13.4919 23.8888 12.2768 23.8026C9.53164 23.5949 6.46162 23.8026 5.07949 23.7586C2.33434 23.6956 0.00956472 22.8963 -0.00317383 21.8075Z" fill="#AC6231"/>
<path d="M22.232 28.416L23.9453 29.3915C25.0408 30.0209 26.6522 30.8769 28.6713 31.8524C31.0369 32.9631 33.4606 33.9484 35.9322 34.8042C38.9361 35.8253 42.0181 36.6061 45.1486 37.1392C48.2661 37.6802 51.4298 37.9184 54.5942 37.8504H55.677L56.7279 37.7875C57.0783 37.7875 57.4222 37.7875 57.7534 37.7182L58.7406 37.5987C59.3775 37.5231 60.0145 37.4728 60.6068 37.3532C60.8998 37.3092 61.1864 37.2525 61.4731 37.1896C61.7597 37.1266 62.0335 37.07 62.3074 37.0008C63.3902 36.7427 64.3838 36.4658 65.2691 36.2581C65.7086 36.1511 66.1226 36.0567 66.5111 35.9812C66.8997 35.9057 67.2436 35.8427 67.5621 35.7986C67.8805 35.7546 68.1544 35.7168 68.3773 35.6539C68.5819 35.58 68.7967 35.5375 69.0143 35.528C69.1447 35.5389 69.2732 35.5664 69.3964 35.6098L69.5174 35.6602H69.3901C69.2677 35.6402 69.1429 35.6402 69.0206 35.6602C68.8264 35.7047 68.6413 35.7813 68.4729 35.8868C68.3496 35.9468 68.2219 35.9973 68.0907 36.0378L67.664 36.1888C67.3646 36.2895 67.0271 36.3965 66.6831 36.5413C66.3392 36.6861 65.9379 36.8308 65.5239 37.007C64.6959 37.3469 63.7596 37.7623 62.6832 38.1714C62.4157 38.2784 62.1354 38.3791 61.8488 38.4798C61.5622 38.5805 61.2692 38.6812 60.9571 38.763C60.3202 38.9644 59.6833 39.0903 59.0464 39.2414L58.0336 39.4679C57.6897 39.5498 57.333 39.5875 56.97 39.6441L55.8744 39.8078L55.314 39.8896L54.7471 39.94C51.4185 40.2617 48.0612 40.1368 44.7665 39.5686C41.4807 39.0065 38.2738 38.0622 35.2126 36.7553C32.7387 35.6906 30.3571 34.4276 28.0917 32.979C26.5849 31.9936 25.1348 30.9262 23.7479 29.7818L22.232 28.416Z" fill="#AC6231"/>
<path d="M10.5698 32.8154C10.3311 32.6397 10.1492 32.3992 10.0463 32.1232C9.94336 31.8472 9.92387 31.5476 9.99021 31.2608C10.1257 30.4562 10.5212 29.7164 11.1176 29.1524C11.6355 28.6858 12.2112 28.2861 12.8309 27.9629C13.6874 27.4833 14.6165 27.1433 15.5824 26.9559C16.0781 26.8642 16.5848 26.8472 17.0856 26.9055C17.5202 26.9529 17.9372 27.1018 18.3021 27.3398C18.546 27.4978 18.7454 27.7143 18.8817 27.9692C18.9709 28.1517 18.99 28.265 18.9454 28.309C18.9008 28.3531 18.4805 28.2461 17.9964 28.309C17.4144 28.4166 16.8779 28.6926 16.455 29.102C15.9134 29.5787 15.4147 30.101 14.9646 30.6629C14.5251 31.1916 14.1557 31.6762 13.8946 31.9217C12.8373 32.9413 11.4934 33.363 10.5698 32.8154Z" fill="#AC6231"/>
</svg>
