<svg width="258" height="93" viewBox="0 0 258 93" fill="none" xmlns="http://www.w3.org/2000/svg">
<path d="M81.3834 14.0276H72.872C72.872 14.0276 76.5918 17.942 75.5841 21.7812L66.1937 56.1524L56.3638 19.4434C55.7314 16.9232 57.3715 14.0169 57.3715 14.0169H46.7162C46.7162 14.0169 49.5569 16.9768 50.2429 19.5077L59.3867 53.6858C60.0835 56.206 59.3224 59.1766 59.3224 59.1766H68.402C68.402 59.1766 67.8338 56.1524 68.5306 53.6858L77.6744 19.5077C78.3712 16.9875 81.3941 14.0169 81.3941 14.0169L81.3834 14.0276Z" fill="white"/>
<path d="M100.357 19.5077C99.6604 16.9875 100.357 14.0169 100.357 14.0169H91.149C91.149 14.0169 91.7171 16.9768 91.0203 19.5077L82.509 51.4873C81.5656 54.8976 77.8459 59.1766 77.8459 59.1766H86.7968C86.7968 59.1766 83.0771 55.2623 84.0847 51.423L87.5472 38.436H98.7063L102.426 53.7609C103.058 56.2811 101.483 59.1873 101.483 59.1873H112.267C112.267 59.1873 109.308 56.2275 108.676 53.6965L100.357 19.5184V19.5077ZM88.0081 36.9775L93.4323 16.8588L98.3526 36.9775H88.0081Z" fill="white"/>
<path d="M124.38 57.6642C123.94 56.8492 123.501 55.4551 123.501 54.5757V20.3332C123.501 17.0516 125.27 14.0274 125.27 14.0274H115.558C115.558 14.0274 117.391 17.0516 117.391 19.7005V53.8143C117.391 56.2058 115.622 59.1764 115.622 59.1764H135.668C137.94 59.1764 140.706 59.6161 141.092 59.7447L143.739 52.7418C143.482 53.0528 138.004 57.6642 129.686 57.6642H124.38Z" fill="white"/>
<path d="M155.52 57.6642C155.081 56.8492 154.641 55.4551 154.641 54.5757V20.3332C154.641 17.0516 156.41 14.0274 156.41 14.0274H146.698C146.698 14.0274 148.531 17.0516 148.531 19.7005V53.8143C148.531 56.2058 146.762 59.1764 146.762 59.1764H166.808C169.081 59.1764 171.857 59.6161 172.232 59.7447L174.88 52.7418C174.623 53.0528 169.145 57.6642 160.827 57.6642H155.52Z" fill="white"/>
<path d="M186.597 57.6635C186.157 56.8484 185.718 55.4543 185.718 54.5749V35.4H190.198C195.558 35.4 196.502 37.5448 196.759 37.9845L200.479 31.3677C199.91 31.6251 194.422 33.8235 190.198 33.8879L185.718 33.9522V19.6354C185.718 18.252 186.093 16.4825 186.532 15.5387H191.388C199.642 15.5387 204.756 20.0215 205.388 20.5255L202.74 13.5226C202.365 13.7156 198.71 14.0266 197.316 14.0266H177.839C177.839 14.0266 179.672 16.9865 179.672 19.571V53.8135C179.672 56.205 177.839 59.1756 177.839 59.1756H197.884C200.221 59.1756 202.923 59.6153 203.308 59.744L206.021 52.4944C205.71 52.8054 200.221 57.6635 191.967 57.6635H186.597Z" fill="white"/>
<path d="M240.12 53.6963L232.369 38.5644C237.032 36.9236 241.577 33.2666 241.577 26.9608C241.577 18.7031 235.585 14.0274 227.706 14.0274H210.18C210.18 14.0274 212.013 17.0516 212.013 19.7005V53.9429C212.013 56.1521 210.18 59.1764 210.18 59.1764H219.892C219.892 59.1764 218.123 56.1521 218.123 54.5757V39.1864C219.827 39.6904 221.907 39.9478 223.858 39.9478C224.737 39.9478 225.691 39.8835 226.506 39.7548L233.57 53.6963C234.835 56.1521 234.513 59.1871 234.513 59.1871H244.729C244.729 59.1871 241.385 56.1629 240.13 53.6963H240.12ZM223.097 38.4357C221.392 38.4357 219.688 38.1247 218.112 37.492V20.3332C218.112 17.427 219.817 15.5395 222.775 15.5395H224.855C229.336 15.5395 235.253 17.931 235.253 27.2074C235.253 34.3927 229.261 38.4357 223.086 38.4357H223.097Z" fill="white"/>
<path d="M6.19594 44.6346C5.88508 44.0555 5.57421 43.0903 5.57421 42.4683V18.446C5.57421 16.151 6.81768 14.0169 6.81768 14.0169H0C0 14.0169 1.28636 16.1403 1.28636 17.9956V41.9321C1.28636 43.6158 0.0428785 45.6963 0.0428785 45.6963H14.107C15.6935 45.6963 17.6445 46.0073 17.9125 46.0931L19.767 41.1814C19.5848 41.4066 15.7471 44.6346 9.90494 44.6346H6.18522H6.19594Z" fill="white"/>
<path d="M39.2231 32.6437C39.2231 27.3352 37.583 23.0026 31.7944 23.0026C26.6597 23.0026 22.1574 25.8338 22.1574 25.8338L23.7011 28.976C23.7439 28.5363 27.2385 24.0214 31.3978 24.0214C35.289 24.0214 34.9352 28.6221 34.9352 30.9707C34.9352 31.8072 21.1391 32.3434 21.1391 40.1721C21.1391 45.2125 26.6704 45.7916 28.5249 45.7916C31.7086 45.7916 34.2706 43.6253 34.8924 42.7352C34.6244 44.2366 33.874 45.6951 33.874 45.6951H40.3272C40.3272 45.6951 39.2231 43.6146 39.2231 41.888V32.6437ZM34.9352 41.4054C34.6244 41.888 32.6841 43.9256 30.0685 44.1508C28.1176 44.4618 25.2447 43.3143 25.2447 40.0327C25.2447 33.8341 34.9245 32.4185 34.9245 32.1611V41.4054H34.9352Z" fill="white"/>
<path d="M255.181 19.6463C255.181 16.9974 256.949 13.9624 256.949 13.9624H247.227C247.227 13.9624 249.06 16.9974 249.06 19.6463V53.9424C249.06 56.1515 247.227 59.1865 247.227 59.1865H256.949C256.949 59.1865 255.181 55.7762 255.181 54.0067V19.6463Z" fill="white"/>
<path d="M256.574 2.64888L254.43 0L247.795 8.65445L248.309 9.0298L256.574 2.64888Z" fill="white"/>
<path d="M175.62 91.134C175.62 91.7024 176.274 92.7962 176.274 92.7962H172.779C172.779 92.7962 173.433 91.7024 173.433 90.9088V84.2061H166.894V90.9088C166.894 91.7024 167.526 92.7962 167.526 92.7962H164.032C164.032 92.7962 164.686 91.7024 164.686 90.9088V78.5759C164.686 77.6215 164.032 76.5276 164.032 76.5276H167.526C167.526 76.5276 166.894 77.6215 166.894 78.5759V83.6592H173.433V78.5759C173.433 77.6215 172.779 76.5276 172.779 76.5276H176.274C176.274 76.5276 175.62 77.6215 175.62 78.8011V91.134Z" fill="white"/>
<path d="M201.25 84.6556C201.25 89.2027 197.574 92.9454 193.05 92.9454C188.526 92.9454 184.828 89.2027 184.828 84.6556C184.828 80.1086 188.505 76.3873 193.05 76.3873C197.595 76.3873 201.25 80.13 201.25 84.6556ZM198.345 82.2748C197.209 79.2506 194.894 77.1165 192.31 77.1165C191.699 77.1165 191.056 77.2345 190.424 77.5026C186.586 79.1327 186.543 83.7441 187.862 87.401C188.933 90.2644 190.949 92.2377 193.586 92.2377C194.336 92.2377 195.129 92.0553 195.966 91.7122C198.967 90.5111 199.782 86.0391 198.345 82.2641V82.2748Z" fill="white"/>
<path d="M215.765 90.8123C215.765 91.7025 216.419 92.7856 216.419 92.7856H212.924C212.924 92.7856 213.556 91.6917 213.556 90.8123V78.0076C213.556 77.6859 213.471 77.3749 213.374 77.0746C210.426 77.0746 208.765 78.4151 208.175 78.7798L209.108 76.3454C209.269 76.4097 210.533 76.5277 211.059 76.5277H218.284C218.809 76.5277 220.095 76.4097 220.256 76.3454L221.167 78.7798C220.578 78.4151 218.916 77.0746 215.947 77.0746C215.829 77.3749 215.765 77.6859 215.765 78.0076V90.8123Z" fill="white"/>
<path d="M232.23 83.7022L233.838 83.6807C235.36 83.6593 237.333 82.8657 237.536 82.7692L236.196 85.1499C236.111 84.9891 235.767 84.2169 233.838 84.2169H232.23V91.1233C232.23 91.4451 232.391 91.9384 232.552 92.2387H234.481C237.45 92.2387 239.434 90.4906 239.541 90.3726L238.565 92.9894C238.426 92.9465 237.45 92.7856 236.614 92.7856H229.4C229.4 92.7856 230.054 91.7132 230.054 90.8552V78.5224C230.054 77.5894 229.4 76.5277 229.4 76.5277H236.411C236.914 76.5277 238.222 76.4097 238.362 76.3454L239.316 78.8655C239.091 78.6832 237.247 77.0746 234.277 77.0746H232.53C232.369 77.4178 232.23 78.0505 232.23 78.5545V83.7129V83.7022Z" fill="white"/>
<path d="M250.711 78.8011V91.134C250.711 91.4557 250.871 91.949 251.032 92.2493H252.94C255.931 92.2493 257.914 90.5871 258 90.4798L257.046 93C256.907 92.9571 255.91 92.7962 255.095 92.7962H247.87C247.87 92.7962 248.502 91.7238 248.502 90.8659V78.5759C248.502 77.6215 247.849 76.5276 247.849 76.5276H251.343C251.343 76.5276 250.711 77.6215 250.711 78.8011Z" fill="white"/>
</svg>
